<?xml version="1.0"?>
<svg version="1.1" xmlns="http://www.w3.org/2000/svg" xmlns:xlink="http://www.w3.org/1999/xlink" width="125" height="94">
    <desc iVinci="yes" version="4.6" gridStep="1" showGrid="no" snapToGrid="no" codePlatform="0"/>
    <g id="Layer1" name="Layer 1" opacity="1">
        <g id="Shape1">
            <desc shapeID="1" type="0" basicInfo-basicType="0" basicInfo-roundedRectRadius="12" basicInfo-polygonSides="6" basicInfo-starPoints="5" bounding="rect(-62.3956,-46.7823,124.791,93.5646)" text="" font-familyName="" font-pixelSize="20" font-bold="0" font-underline="0" font-alignment="1" strokeStyle="0" markerStart="0" markerEnd="0" shadowEnabled="0" shadowOffsetX="0" shadowOffsetY="2" shadowBlur="4" shadowOpacity="160" blurEnabled="0" blurRadius="4" transform="matrix(1,0,0,1,62.3956,46.9319)" pers-center="0,0" pers-size="0,0" pers-start="0,0" pers-end="0,0" locked="0" mesh="" flag=""/>
            <path id="shapePath1" d="M113.547,0.150146 C102.943,0.0920563 88.8475,4.7364 77.257,16.5907 L80.348,16.5907 C95.0914,1.01953 113.252,-0.220627 124.791,2.62291 C122.005,1.06778 118.092,0.175049 113.547,0.150146 M80.348,16.5907 C74.6504,22.6081 69.4543,30.7607 65.3609,41.6525 C67.5228,42.3076 69.2148,43.4914 70.0559,45.0107 C71.4934,46.0169 72.7406,47.6053 72.8461,49.6388 C72.9248,51.1559 72.6656,52.3784 72.1945,53.348 C72.1873,53.6358 72.079,53.9586 71.8269,54.3504 C70.8104,55.9303 69.6739,57.4694 68.4352,58.9284 L70.5738,67.4995 L84.7589,42.822 C85.522,40.4396 86.4479,38.7536 87.3319,38.5782 C87.4448,38.5558 87.5383,38.5684 87.6493,38.5949 C100.643,48.9916 83.261,79.9089 79.028,85.26 L79.9971,79.195 L79.0782,76.4048 L80.6487,74.3999 L79.83,72.7124 L81.8851,70.8077 L80.0973,67.3993 L83.0045,64.9766 L81.2502,62.1196 L83.322,59.3294 L84.5249,52.9303 L84.1407,52.2787 C80.3937,61.269 76.0788,71.1667 72.4451,72.8962 C71.3679,73.6115 70.9193,72.5197 69.8219,71.7099 C67.3233,70.2441 67.6234,65.791 65.8455,62.8715 L65.3678,62.1332 C64.4055,63.1032 64.9393,62.6046 63.9073,63.4896 C62.1298,65.0141 62.3727,64.5308 60.5156,63.8739 C60.1755,63.7536 59.8867,63.6411 59.5633,63.5231 L61.0837,67.4494 L63.2724,71.4092 L63.7068,72.0942 C62.7973,73.8031 62.3859,77.0751 60.95,77.2235 C57.461,78.1833 48.3612,71.6384 40.3324,66.5639 L40.3157,66.9148 L44.0917,70.958 L46.9655,71.6765 L46.8652,75.1016 L50.1901,74.9011 L50.3071,78.794 L52.7631,78.8275 L52.8968,80.7155 L55.002,81.1498 L55.5199,83.9234 L58.9451,87.9165 C53.2745,86.7603 26.0214,75.1301 31.5106,58.0763 C31.6597,57.8806 31.874,57.7793 32.1121,57.7254 C33.3982,57.4343 35.8624,59.1313 38.2606,61.752 L58.6276,70.0391 L56.1381,62.1864 C51.4871,60.2094 49.2536,58.4592 48.5861,56.4055 C47.6784,55.5686 46.9921,54.3361 46.6981,52.5627 C46.1884,49.4878 48.7496,46.8233 50.7414,45.9965 C50.8717,45.776 51.0145,45.5567 51.1759,45.3449 C44.5795,40.0008 28.2434,29.9935 16.1226,25.3957 C15.5721,26.8741 15.2705,28.466 15.2705,30.1408 L15.2705,80.1474 C15.2705,87.6586 21.3261,93.7141 28.8373,93.7142 L88.6685,93.7142 C96.1798,93.7142 102.235,87.6586 102.235,80.1474 L102.235,30.1408 C102.235,22.6296 96.1798,16.5907 88.6685,16.5907 L80.348,16.5907 M16.1226,25.3957 C16.4391,24.5456 16.8367,23.7318 17.3088,22.9731 C-3.44156,16.0363 -5.89959,28.5696 11.9122,45.8295 C-6.06375,21.9502 2.2793,20.1446 16.1226,25.3957 M17.3088,22.9731 C26.0942,25.91 38.1479,32.3374 53.3479,43.3734 C55.0107,42.2605 57.1718,41.455 59.5967,41.1847 C60.4568,41.0888 61.3078,41.0604 62.1196,41.1011 C65.9398,30.7735 71.2654,22.7187 77.257,16.5907 L28.8373,16.5907 C23.9639,16.5907 19.6977,19.1336 17.3088,22.9731 Z" style="stroke:none;fill-rule:evenodd;fill:#5aa0ce;fill-opacity:1;"/>
        </g>
    </g>
</svg>
